<svg width="32" height="32" viewBox="0 0 32 32" fill="none" xmlns="http://www.w3.org/2000/svg">
    <path d="M16 2.66666C8.65233 2.66666 2.66666 8.65234 2.66666 16C2.66666 23.3477 8.65233 29.3333 16 29.3333C23.3476 29.3333 29.3333 23.3477 29.3333 16C29.3333 8.65234 23.3476 2.66666 16 2.66666ZM16 5.33333C21.9062 5.33333 26.6667 10.0937 26.6667 16C26.6667 21.9062 21.9062 26.6667 16 26.6667C10.0937 26.6667 5.33332 21.9062 5.33332 16C5.33332 10.0937 10.0937 5.33333 16 5.33333ZM21.7239 11.0573L13.3333 19.4479L10.276 16.3906L8.39061 18.276L13.3333 23.2187L23.6094 12.9427L21.7239 11.0573Z" fill="#2ECC71"/>
</svg>